<svg xmlns="http://www.w3.org/2000/svg" xmlns:xlink="http://www.w3.org/1999/xlink" version="1.1" x="0px" y="0px" viewBox="0 0 50 50" style="enable-background:new 0 0 50 50;" xml:space="preserve"><path d="M44.8,21.2L38.1,9.7c0.6-0.7,0.9-1.5,0.9-2.4c0-2-1.7-3.7-3.7-3.7c-1.6,0-2.9,1-3.4,2.3H18.2c-0.5-1.4-1.9-2.3-3.4-2.3  c-2,0-3.7,1.7-3.7,3.7c0,0.9,0.3,1.7,0.9,2.3L5.2,21.2c-0.2,0-0.3-0.1-0.5-0.1c-2,0-3.7,1.7-3.7,3.7c0,2,1.7,3.7,3.7,3.7  c0.2,0,0.3,0,0.5-0.1L12,40.3c-0.6,0.7-1,1.5-1,2.5c0,2,1.7,3.7,3.7,3.7c1.7,0,3.1-1.1,3.5-2.7h13.5c0.4,1.6,1.9,2.7,3.6,2.7  c2,0,3.7-1.7,3.7-3.7c0-1-0.4-1.9-1.1-2.6l6.8-11.7c0.2,0,0.3,0.1,0.5,0.1c2,0,3.7-1.7,3.7-3.7C49,22.7,47.1,20.8,44.8,21.2z   M41.7,23.8h-5.4v-13c0,0,0.1,0,0.1,0L42.9,22C42.4,22.4,42,23.1,41.7,23.8z M32.6,9.6L27,19.3c-0.6-0.2-1.3-0.4-2-0.4  c-0.7,0-1.4,0.1-2,0.4l-5.6-9.6c0.5-0.5,0.8-1.2,0.9-1.9h13.4C31.9,8.5,32.2,9.1,32.6,9.6z M22.8,27.9C19.7,25.6,21.4,21,25,21  c2.1,0,3.8,1.7,3.8,3.8c0,2-1.6,3.7-3.6,3.8C24.3,28.7,23.5,28.4,22.8,27.9z M15.6,10.8c0,0,0.1,0,0.1,0l5.5,9.6  c-1,0.8-1.8,2.1-2,3.5h-3.6V10.8z M19.3,25.8c0.2,1.4,1,2.6,2,3.5L15.6,39V25.8H19.3z M17.3,40.1l5.7-9.8c0.7,0.2,1.4,0.4,2,0.4  c0.6,0,1.3-0.1,2-0.4l5.7,9.9c-0.4,0.4-0.7,1-0.9,1.6H18.3C18.1,41.1,17.8,40.6,17.3,40.1z M34.4,39l-5.6-9.8c1-0.9,1.8-2.1,2-3.5  h3.6V39z M30.7,23.8c-0.2-1.3-0.9-2.6-2-3.5l5.5-9.6c0,0,0.1,0,0.1,0v13H30.7z M35.4,5.5c0.9,0,1.7,0.8,1.7,1.7  c0,0.9-0.8,1.7-1.7,1.7c0,0,0,0,0,0c0,0,0,0,0,0c-0.9,0-1.7-0.8-1.7-1.7C33.7,6.3,34.4,5.5,35.4,5.5z M14.7,5.5  c0.9,0,1.7,0.8,1.7,1.7c0,0.9-0.8,1.7-1.7,1.7c0,0,0,0,0,0h0c-0.9,0-1.7-0.8-1.7-1.7C13,6.3,13.8,5.5,14.7,5.5z M13.5,10.7  C13.6,10.7,13.6,10.7,13.5,10.7l0.1,13.1H8.3C8,23.1,7.6,22.4,7.1,22L13.5,10.7z M3,24.8c0-0.9,0.8-1.7,1.7-1.7  c0.9,0,1.7,0.8,1.7,1.7c0,0,0,0,0,0c0,0,0,0,0,0c0,0.9-0.8,1.7-1.7,1.7C3.8,26.5,3,25.7,3,24.8z M8.2,25.8h5.4V39L7.1,27.6  C7.6,27.2,8,26.5,8.2,25.8z M14.7,44.5c-0.9,0-1.7-0.8-1.7-1.7c0-0.9,0.8-1.7,1.7-1.7c0.9,0,1.7,0.8,1.7,1.7  C16.4,43.7,15.7,44.5,14.7,44.5z M35.4,44.5c-0.9,0-1.7-0.8-1.7-1.7c0,0,0,0,0,0c0,0,0,0,0,0c0-0.9,0.8-1.7,1.7-1.7c0,0,0,0,0,0  c0,0,0,0,0,0c0.9,0,1.7,0.8,1.7,1.7C37.1,43.7,36.3,44.5,35.4,44.5z M36.4,39V25.8h5.4c0.2,0.7,0.6,1.4,1.2,1.8L36.4,39z M45.3,26.5  c-0.9,0-1.7-0.8-1.7-1.7c0,0,0,0,0,0c0,0,0,0,0,0c0-0.9,0.8-1.7,1.7-1.7c0.9,0,1.7,0.8,1.7,1.7C47,25.7,46.2,26.5,45.3,26.5z"></path></svg>